<svg height="450.29" viewBox="97.2227915 28.7141915 447.554417 454.2858085" width="443.55" xmlns="http://www.w3.org/2000/svg">
<mask id="bull">
    <rect x="0" y="0" width="600" height="600" fill="white" />
    <path fill="black" d="m461.35 142.3c33.44 23.08 59.05 50.4 63.07 92.43 1.51 15.77-4.02 29.45-14.84 41-19.58 20.89-44.65 31.71-71.62 39.02-1.8.49-3.62.95-5.41 1.5-.48.14-.89.55-1.33.84 23.12 9 22.16 18.22 19.25 35.25-12.88-2.82-25.73-5.64-39.47-8.66-1.4 10.09-2.87 19.73-4.01 29.41-.77 6.49-3.34 11.22-9.18 14.88-20.79 13.03-27.23 33.5-27.43 56.54-.06 6.72-2.47 10.78-7.96 14.28-5.85 3.72-11.09 8.4-16.58 12.68-14.94 11.63-35.93 11.02-51.44.3-15.72-10.86-27.19-22.2-26.67-43.85.42-17.51-11.27-30.77-25.84-40.28-5.21-3.39-7.81-7.62-8.54-13.55-1.21-9.79-2.62-19.56-4.09-30.39-13.17 2.91-26.02 5.74-38.74 8.55-6.57-16.9-1.38-26.34 17.96-34.75-13.51-5.06-28.06-9.13-41.24-15.84-12-6.12-23.35-14.17-33.5-23.07-17.34-15.17-21.68-35.19-16.14-57.11 8.84-34.9 31.29-59.43 61.86-77.75-.95 1.92-2.04 3.8-2.86 5.79-6.58 15.69-14.53 30.99-19.26 47.22-4.71 16.15 2.53 30.8 18.38 36.59 18.7 6.83 38.5 10.69 57.86 15.69 1.38.35 3.23-.19 4.59-.85 32-15.55 66.23-16 100.59-14.34 21.94 1.06 43.76 3.77 63.64 14.54 1.48.8 3.72.86 5.42.47 15.9-3.62 32.01-6.59 47.58-11.34 24.78-7.55 33.76-24.2 25.75-49.03-4.97-15.39-12.71-29.89-19.8-46.17"/>
</mask>
<path fill="white" mask="url(#bull)" d="m541.78 251.49c0 122.48-99.3 221.78-221.78 221.78s-221.78-99.3-221.78-221.78 99.3-221.78 221.78-221.78 221.78 99.3 221.78 221.78"/>
</svg>
